# xmcd
#
# Track frame offsets: 
#        210
#        31335
#        59085
#        83685
#        111660
#        133785
#        153585
#        174585
#        198585
#        226335
#
# Disc length: 3250 seconds
#
# Revision: 0
# Processed by: cddbd v1.5.2PL0 Copyright (c) Steve Scherf et al.
# Submitted via: ExactAudioCopyFreeDBPlugin 1.0
#
DISCID=8d0cb00a
DTITLE=Tomoko Sasaki - Invisible
DYEAR=2015
DGENRE=R&B
TTITLE0=It's not a fantasy
TTITLE1=invisible
TTITLE2=Conviction of love
TTITLE3=Not goin' Anywhere
TTITLE4=Sorrow
TTITLE5=I.T.O.Y
TTITLE6=Suddenly
TTITLE7=Spritual Love
TTITLE8=No More Stormy Rain
TTITLE9=SKY (instrumental)
EXTD=
EXTT0=
EXTT1=
EXTT2=
EXTT3=
EXTT4=
EXTT5=
EXTT6=
EXTT7=
EXTT8=
EXTT9=
PLAYORDER=
